<?xml version="1.0" encoding="utf-8"?>
<!-- Generator: Adobe Illustrator 18.1.0, SVG Export Plug-In . SVG Version: 6.00 Build 0)  -->
<svg version="1.1" id="Слой_1" xmlns="http://www.w3.org/2000/svg" xmlns:xlink="http://www.w3.org/1999/xlink" x="0px" y="0px"
	 viewBox="0 0 841.9 595.3" enable-background="new 0 0 841.9 595.3" xml:space="preserve">
<circle fill="#6E3B8F" stroke="#5E5E5E" stroke-width="17.0914" stroke-miterlimit="10" cx="420.9" cy="297.6" r="286"/>
<linearGradient id="SVGID_1_" gradientUnits="userSpaceOnUse" x1="-145.8855" y1="776.8644" x2="-74.4058" y2="1010.664">
	<stop  offset="0.1735" style="stop-color:#2B0132;stop-opacity:0.6"/>
	<stop  offset="0.2964" style="stop-color:#2D0234;stop-opacity:0.519"/>
	<stop  offset="0.4099" style="stop-color:#32043A;stop-opacity:0.4442"/>
	<stop  offset="0.5196" style="stop-color:#3B0943;stop-opacity:0.3719"/>
	<stop  offset="0.6271" style="stop-color:#470F4E;stop-opacity:0.3012"/>
	<stop  offset="0.7319" style="stop-color:#57145C;stop-opacity:0.2321"/>
	<stop  offset="0.7806" style="stop-color:#5F1763;stop-opacity:0.2"/>
	<stop  offset="0.8236" style="stop-color:#631866;stop-opacity:0.1608"/>
	<stop  offset="0.8911" style="stop-color:#6F1B6E;stop-opacity:9.930237e-002"/>
	<stop  offset="0.974" style="stop-color:#821E7A;stop-opacity:2.367949e-002"/>
	<stop  offset="1" style="stop-color:#891F7E;stop-opacity:0"/>
</linearGradient>
<path opacity="0.57" fill="url(#SVGID_1_)" d="M-355.9,841.1c26.8,32.2,57.2,66,91.5,100.5c29.7,29.9,58.9,56.8,87,81
	c28.6,1.8,77.9,0.7,132-22.5c97.7-41.9,140.3-125.9,151.5-150c-5-4.1-12.1-9.5-21-15c-3.9-2.4-16.2-10-27-13.9
	C44,816,15.9,805-4.9,818.6c-4,2.6-11.3,8.5-16.5,21c-19-15-38-30-57-45c-22.6-4.9-44.5,4-54,21c-8.3,14.9-4.2,30.6-3,34.5
	c-16-7.5-32-15-48-22.5c-14.7,9.6-37.3,20.7-64.5,19.5c-12.4-0.6-18.8-3.4-33-6C-297.9,837.9-323.1,835.6-355.9,841.1z"/>
<g>
	<path fill="#541B6A" d="M-153,777.1c0-19.6,0-39.2,0.1-58.8c0-2.8,0.3-5.7,1.2-8.4c2-6.6,6.9-9.9,13.5-10
		c14.5-0.2,29.1-0.8,43.5,0.2c20.5,1.4,36.4,10.9,44.4,30.6c9.6,23.5,2.3,53-23.9,65.6c-6.7,3.2-13.9,5-21.4,5.1
		c-7.5,0.1-15,0.2-22.5,0c-2.4,0-3,0.8-3,3.1c0.1,11.4,0.1,22.9-0.1,34.3c-0.1,4.8-1.9,8.9-5.8,11.8c-4.6,3.4-9.8,4.3-15.2,2.5
		c-7-2.4-10.6-7.5-10.6-14.9C-153,817.9-153,797.5-153,777.1C-153,777.1-153,777.1-153,777.1z M-107.9,772.9c0,0,0-0.1,0-0.1
		c3.6,0,7.2,0.3,10.8-0.1c2.6-0.3,5.3-1,7.5-2.2c8.4-4.5,12.8-14.6,10.9-24.3c-2.2-10.9-9.8-17.4-20.8-17.6
		c-6.4-0.1-12.7,0-19.1-0.1c-2.1,0-2.7,0.7-2.7,2.8c0.1,13,0.1,26.1,0,39.1c0,2,0.6,2.6,2.5,2.6
		C-115.1,772.8-111.5,772.9-107.9,772.9z"/>
	<path fill="#541B6A" d="M-202.5,842.3c-7.6,8.2-16.6,11.2-26.8,11.6c-10.7,0.4-20.9-1.6-29.6-8.1c-11.8-8.7-15.2-23.3-12.4-36.7
		c2.7-13.3,12.3-20.4,24.1-25.1c12.7-5.1,26.1-5.9,39.6-6.2c2.9-0.1,3.8-0.6,4-3.8c0.5-9.2-2.6-11.5-12.1-12.1
		c-8.6-0.6-15.9,2.6-22.7,7.3c-5.4,3.7-11.4,3.9-15.7,0.8c-5.8-4.2-6.9-12.3-2.3-17.9c5.1-6.2,12.1-9.5,19.4-12.1
		c8.7-3,17.7-4.3,26.9-3.3c7.5,0.8,14.8,2.2,21.5,6c9.7,5.5,14.9,14,15,24.8c0.4,23.8,0.2,47.6,0.1,71.5c0,8-6.2,16.7-17.1,15
		c-4.6-0.7-8.1-3.4-9.9-7.9C-201.3,844.8-201.8,843.7-202.5,842.3z M-213.4,800c0,0,0,0.1,0,0.1c-2.8,0-5.5-0.2-8.2,0
		c-5.7,0.6-11.4,1.3-16.2,4.8c-4.7,3.4-6.2,8.2-5.6,13.7c0.5,4.1,3.2,6.7,6.8,8c6.5,2.3,13.2,2.6,20,0.8c5.8-1.5,9.7-5,12-10.3
		c2.2-5,2.5-10.2,2.2-15.6c0-0.6-1.3-1.5-2.1-1.5C-207.4,799.8-210.4,800-213.4,800z"/>
	<path fill="#541B6A" d="M29.4,842.4c-10,10.8-22.6,12.9-35.7,11.3c-12.3-1.5-23.4-6.2-29.5-18.2c-9-17.9-5.4-39.5,16.5-49.8
		c12.2-5.7,25.2-6.8,38.3-7.8c2.1-0.2,4.2-0.2,6.3-0.1c2.2,0.1,3.2-0.7,2.8-2.9c-0.1-0.3,0-0.6,0-1c0.9-9.1-2.6-11.4-12.1-12
		c-8.5-0.5-15.7,2.6-22.5,7.2c-5.6,3.8-11.3,4.1-15.7,1c-6-4.3-7.1-12.4-2.4-18.1c5.1-6.2,12.1-9.5,19.4-12c8.5-3,17.3-4.2,26.2-3.3
		c7.6,0.7,15,2.1,21.8,6c9.7,5.5,15,13.9,15.2,24.7c0.4,23.9,0.3,47.8,0.1,71.8c-0.1,8.2-6.4,16.6-17.2,14.8c-4.6-0.7-8.1-3.5-9.9-8
		C30.7,844.7,30,843.6,29.4,842.4z M6.4,829c7.9-0.5,15.2-2,19.7-9.2c3.2-5.2,3.7-11.1,3.7-17.1c0-2.1-0.7-2.8-2.8-2.7
		c-5.6,0.1-11.2-0.2-16.8,0.3c-5.6,0.4-11.2,1.3-15.9,4.7c-4.7,3.3-6.2,8.1-5.7,13.6c0.4,4.1,3.1,6.8,6.8,8
		C-1.2,827.7,2.7,828.2,6.4,829z"/>
	<path fill="#541B6A" d="M-356.4,774.2c0-19.6,0-39.2,0-58.8c0-5.8,1.3-10.9,6.5-14.3c5.6-3.7,11.6-3.9,17.5-0.9
		c5.4,2.8,7.8,7.6,7.8,13.5c0.1,15.9,0.1,31.8,0.1,47.6c0,19.3,0.1,38.5-0.1,57.8c0,2.5,0.8,3,3.1,3c11.9-0.1,23.7-0.1,35.6,0.1
		c5.9,0.1,10.3,2.9,12.8,8.3c4.1,8.9-2.2,19.5-12.1,20.1c-1.2,0.1-2.3,0.1-3.5,0.1c-16.4,0-32.8-0.3-49.2,0.1
		c-12.4,0.3-18.6-7.2-18.5-18.6C-356.2,812.9-356.4,793.6-356.4,774.2z"/>
</g>
<g>
	<g>
		<path fill="#FFFFFF" stroke="#5E5D60" stroke-width="5" stroke-miterlimit="10" d="M416.9,298.6c0-19.6,0-39.2,0.1-58.8
			c0-2.8,0.3-5.7,1.2-8.4c2-6.6,6.9-9.9,13.5-10c14.5-0.2,29.1-0.8,43.5,0.2c20.5,1.4,36.4,10.9,44.4,30.6
			c9.6,23.5,2.3,53-23.9,65.6c-6.7,3.2-13.9,5-21.4,5.1c-7.5,0.1-15,0.2-22.5,0c-2.4,0-3,0.8-3,3.1c0.1,11.4,0.1,22.9-0.1,34.3
			c-0.1,4.8-1.9,8.9-5.8,11.8c-4.6,3.4-9.8,4.3-15.2,2.5c-7-2.4-10.6-7.5-10.6-14.9C416.9,339.5,417,319,416.9,298.6
			C417,298.6,417,298.6,416.9,298.6z M462.1,294.4c0,0,0-0.1,0-0.1c3.6,0,7.2,0.3,10.8-0.1c2.6-0.3,5.3-1,7.5-2.2
			c8.4-4.5,12.8-14.6,10.9-24.3c-2.2-10.9-9.8-17.4-20.8-17.6c-6.4-0.1-12.7,0-19.1-0.1c-2.1,0-2.7,0.7-2.7,2.8
			c0.1,13,0.1,26.1,0,39.1c0,2,0.6,2.6,2.5,2.6C454.9,294.3,458.5,294.4,462.1,294.4z"/>
		<path fill="#FFFFFF" stroke="#5E5D60" stroke-width="5" stroke-miterlimit="10" d="M367.4,363.8c-7.6,8.2-16.6,11.2-26.8,11.6
			c-10.7,0.4-20.9-1.6-29.6-8.1c-11.8-8.7-15.2-23.3-12.4-36.7c2.7-13.3,12.3-20.4,24.1-25.1c12.7-5.1,26.1-5.9,39.6-6.2
			c2.9-0.1,3.8-0.6,4-3.8c0.5-9.2-2.6-11.5-12.1-12.1c-8.6-0.6-15.9,2.6-22.7,7.3c-5.4,3.7-11.4,3.9-15.7,0.8
			c-5.8-4.2-6.9-12.3-2.3-17.9c5.1-6.2,12.1-9.5,19.4-12.1c8.7-3,17.7-4.3,26.9-3.3c7.5,0.8,14.8,2.2,21.5,6
			c9.7,5.5,14.9,14,15,24.8c0.4,23.8,0.2,47.6,0.1,71.5c0,8-6.2,16.7-17.1,15c-4.6-0.7-8.1-3.4-9.9-7.9
			C368.7,366.3,368.1,365.2,367.4,363.8z M356.6,321.5c0,0,0,0.1,0,0.1c-2.8,0-5.5-0.2-8.2,0c-5.7,0.6-11.4,1.3-16.2,4.8
			c-4.7,3.4-6.2,8.2-5.6,13.7c0.5,4.1,3.2,6.7,6.8,8c6.5,2.3,13.2,2.6,20,0.8c5.8-1.5,9.7-5,12-10.3c2.2-5,2.5-10.2,2.2-15.6
			c0-0.6-1.3-1.5-2.1-1.5C362.6,321.4,359.6,321.5,356.6,321.5z"/>
		<path fill="#FFFFFF" stroke="#5E5D60" stroke-width="5" stroke-miterlimit="10" d="M599.3,363.9c-10,10.8-22.6,12.9-35.7,11.3
			c-12.3-1.5-23.4-6.2-29.5-18.2c-9-17.9-5.4-39.5,16.5-49.8c12.2-5.7,25.2-6.8,38.3-7.8c2.1-0.2,4.2-0.2,6.3-0.1
			c2.2,0.1,3.2-0.7,2.8-2.9c-0.1-0.3,0-0.6,0-1c0.9-9.1-2.6-11.4-12.1-12c-8.5-0.5-15.7,2.6-22.5,7.2c-5.6,3.8-11.3,4.1-15.7,1
			c-6-4.3-7.1-12.4-2.4-18.1c5.1-6.2,12.1-9.5,19.4-12c8.5-3,17.3-4.2,26.2-3.3c7.6,0.7,15,2.1,21.8,6c9.7,5.5,15,13.9,15.2,24.7
			c0.4,23.9,0.3,47.8,0.1,71.8c-0.1,8.2-6.4,16.6-17.2,14.8c-4.6-0.7-8.1-3.5-9.9-8C600.6,366.2,600,365.2,599.3,363.9z
			 M576.3,350.5c7.9-0.5,15.2-2,19.7-9.2c3.2-5.2,3.7-11.1,3.7-17.1c0-2.1-0.7-2.8-2.8-2.7c-5.6,0.1-11.2-0.2-16.8,0.3
			c-5.6,0.4-11.2,1.3-15.9,4.7c-4.7,3.3-6.2,8.1-5.7,13.6c0.4,4.1,3.1,6.8,6.8,8C568.8,349.3,572.6,349.7,576.3,350.5z"/>
		<path fill="#FFFFFF" stroke="#5E5D60" stroke-width="5" stroke-miterlimit="10" d="M213.6,295.7c0-19.6,0-39.2,0-58.8
			c0-5.8,1.3-10.9,6.5-14.3c5.6-3.7,11.6-3.9,17.5-0.9c5.4,2.8,7.8,7.6,7.8,13.5c0.1,15.9,0.1,31.8,0.1,47.6
			c0,19.3,0.1,38.5-0.1,57.8c0,2.5,0.8,3,3.1,3c11.9-0.1,23.7-0.1,35.6,0.1c5.9,0.1,10.3,2.9,12.8,8.3c4.1,8.9-2.2,19.5-12.1,20.1
			c-1.2,0.1-2.3,0.1-3.5,0.1c-16.4,0-32.8-0.3-49.2,0.1c-12.4,0.3-18.6-7.2-18.5-18.6C213.7,334.5,213.6,315.1,213.6,295.7z"/>
	</g>
</g>
</svg>
